<?xml version="1.0" standalone="no"?>
<!DOCTYPE svg PUBLIC "-//W3C//DTD SVG 20010904//EN"
 "http://www.w3.org/TR/2001/REC-SVG-20010904/DTD/svg10.dtd">
<svg version="1.0" xmlns="http://www.w3.org/2000/svg"
 width="196.000000pt" height="196.000000pt" viewBox="0 0 196.000000 196.000000"
 preserveAspectRatio="xMidYMid meet">

<g transform="translate(0.000000,196.000000) scale(0.100000,-0.100000)"
fill="#000000" stroke="none">
<path d="M813 1945 c-355 -64 -644 -312 -760 -650 -174 -510 101 -1067 612
-1242 510 -174 1067 101 1242 612 174 510 -101 1067 -612 1242 -150 51 -332
65 -482 38z m44 -237 c6 -7 13 -36 16 -63 l6 -51 -77 1 c-67 0 -85 -4 -139
-33 -74 -38 -179 -133 -223 -202 -41 -64 -48 -108 -22 -139 46 -58 144 -5 148
80 3 53 30 90 80 108 36 12 44 12 77 -4 72 -34 89 -119 36 -180 -18 -21 -40
-35 -54 -35 -13 0 -43 -20 -74 -49 -29 -28 -72 -58 -97 -67 -44 -17 -59 -16
-143 7 -22 6 -41 -40 -41 -101 0 -61 19 -107 41 -101 84 23 99 24 143 7 25 -9
68 -39 97 -67 28 -27 60 -49 71 -49 11 0 35 -15 54 -34 26 -26 34 -42 34 -71
0 -49 -26 -91 -69 -111 -31 -15 -40 -15 -75 -3 -50 18 -80 57 -80 108 -1 43
-32 86 -74 102 -29 11 -78 -12 -87 -42 -16 -51 35 -140 133 -229 92 -85 158
-115 249 -115 62 0 75 3 98 25 47 44 55 71 55 187 -1 66 -5 116 -13 129 -21
37 -127 146 -145 149 -9 2 -25 4 -36 4 -10 1 -34 17 -53 36 -33 33 -35 39 -30
82 15 137 206 140 224 5 5 -37 17 -56 75 -119 98 -105 108 -130 108 -284 0
-121 -1 -128 -31 -187 -16 -34 -45 -73 -62 -88 -149 -126 -360 -89 -544 94
-123 124 -186 251 -164 335 9 38 7 48 -22 106 -44 91 -44 172 1 264 30 61 32
70 21 105 -24 80 33 195 160 325 116 120 228 176 347 177 46 0 75 -5 81 -12z
m445 -9 c80 -27 150 -72 225 -147 123 -124 186 -251 164 -335 -9 -38 -7 -48
22 -106 44 -91 44 -172 -1 -264 -30 -61 -32 -70 -21 -105 25 -84 -43 -214
-181 -346 -108 -103 -203 -150 -315 -154 -94 -4 -100 -1 -108 73 l-6 51 77 -1
c67 0 85 4 139 33 74 38 179 133 223 202 41 64 48 108 22 139 -46 57 -145 4
-147 -79 -1 -52 -31 -91 -81 -109 -35 -12 -44 -12 -75 3 -43 20 -69 62 -69
111 0 46 53 105 94 105 17 0 33 10 48 31 31 41 101 86 147 94 23 4 54 1 79 -8
55 -19 65 -6 70 82 3 71 -14 119 -39 112 -84 -23 -99 -24 -143 -7 -25 9 -68
39 -97 67 -28 27 -60 49 -71 49 -11 0 -35 15 -54 34 -26 26 -34 42 -34 71 0
49 26 91 69 111 31 15 40 15 75 3 50 -18 80 -57 81 -109 2 -83 101 -136 147
-79 40 49 -6 145 -120 249 -92 85 -158 115 -249 115 -62 0 -75 -3 -98 -25 -47
-44 -55 -71 -55 -187 1 -66 5 -116 13 -129 7 -12 40 -52 74 -88 51 -55 67 -66
93 -66 23 0 42 -10 67 -35 33 -33 35 -39 30 -82 -15 -137 -206 -140 -224 -5
-5 37 -17 56 -75 119 -98 105 -108 130 -108 283 0 110 3 131 24 175 34 73 69
110 138 144 76 38 157 42 250 10z"/>
</g>
</svg>
