<?xml version="1.0" encoding="UTF-8"?>
<!-- Generator: visioncortex VTracer 0.6.3 -->
<svg version="1.1" xmlns="http://www.w3.org/2000/svg" width="1280" height="1280">
<path d="M0 0 C1.23 -0 1.23 -0 2.49 -0.01 C5.28 -0.01 8.06 -0.01 10.84 -0 C12.85 -0.01 14.87 -0.01 16.88 -0.01 C22.45 -0.02 28.03 -0.01 33.6 -0.01 C39.65 -0.01 45.7 -0.02 51.75 -0.02 C62.36 -0.03 72.97 -0.03 83.58 -0.03 C94.98 -0.03 106.37 -0.04 117.76 -0.04 C118.48 -0.04 119.19 -0.04 119.94 -0.04 C122.86 -0.04 125.79 -0.04 128.72 -0.05 C163.39 -0.06 198.06 -0.07 232.74 -0.07 C250 -0.08 267.26 -0.08 284.52 -0.08 C339.86 -0.1 395.2 -0.11 450.54 -0.11 C453.19 -0.11 455.83 -0.11 458.48 -0.11 C463.78 -0.11 469.09 -0.11 474.4 -0.11 C480.61 -0.11 486.82 -0.11 493.03 -0.11 C494.81 -0.11 496.59 -0.11 498.37 -0.11 C555.49 -0.12 612.61 -0.13 669.73 -0.15 C710.78 -0.17 751.82 -0.19 792.86 -0.19 C793.7 -0.19 794.54 -0.19 795.41 -0.19 C813.93 -0.19 832.44 -0.19 850.96 -0.2 C857.58 -0.2 864.21 -0.2 870.83 -0.2 C872.48 -0.2 874.13 -0.2 875.78 -0.2 C902.07 -0.2 928.36 -0.21 954.64 -0.22 C981.11 -0.24 1007.58 -0.24 1034.05 -0.23 C1037.7 -0.23 1041.36 -0.23 1045.01 -0.23 C1045.73 -0.23 1046.44 -0.23 1047.18 -0.23 C1058.54 -0.23 1069.9 -0.23 1081.27 -0.25 C1092.43 -0.26 1103.59 -0.26 1114.75 -0.25 C1120.72 -0.24 1126.7 -0.24 1132.67 -0.25 C1138.1 -0.26 1143.53 -0.26 1148.96 -0.25 C1150.91 -0.25 1152.87 -0.25 1154.83 -0.26 C1157.48 -0.27 1160.13 -0.26 1162.77 -0.25 C1163.92 -0.26 1163.92 -0.26 1165.09 -0.27 C1170.68 -0.21 1173.72 1.03 1177.74 4.81 C1179.51 8.2 1179.36 11.47 1179.33 15.2 C1179.33 16.44 1179.33 16.44 1179.34 17.71 C1179.35 20.5 1179.34 23.29 1179.33 26.08 C1179.33 28.1 1179.34 30.12 1179.34 32.14 C1179.36 37.74 1179.35 43.33 1179.34 48.92 C1179.33 54.99 1179.34 61.06 1179.35 67.12 C1179.37 77.77 1179.37 88.42 1179.36 99.07 C1179.35 110.5 1179.35 121.93 1179.36 133.36 C1179.36 134.08 1179.36 134.8 1179.36 135.55 C1179.37 138.48 1179.37 141.42 1179.37 144.36 C1179.39 174.2 1179.39 204.04 1179.39 233.87 C1179.39 238 1179.39 242.13 1179.39 246.25 C1179.38 247.48 1179.38 247.48 1179.38 248.73 C1179.38 266.88 1179.38 285.02 1179.39 303.16 C1179.39 305.65 1179.39 308.13 1179.39 310.61 C1179.39 317.26 1179.39 323.92 1179.4 330.57 C1179.41 377.02 1179.41 423.48 1179.4 469.93 C1179.4 471.24 1179.4 471.24 1179.4 472.58 C1179.4 482.35 1179.4 492.12 1179.4 501.89 C1179.4 502.77 1179.4 503.65 1179.4 504.56 C1179.4 511.72 1179.4 511.72 1179.39 515.26 C1179.38 571.69 1179.39 628.11 1179.42 684.54 C1179.42 698.76 1179.43 712.97 1179.43 727.19 C1179.43 728.07 1179.43 728.94 1179.43 729.84 C1179.44 756.81 1179.45 783.78 1179.45 810.75 C1179.45 811.6 1179.45 812.45 1179.45 813.32 C1179.45 831.9 1179.45 850.48 1179.45 869.05 C1179.45 875.7 1179.45 882.35 1179.45 889 C1179.45 890.65 1179.45 892.3 1179.45 893.96 C1179.44 920.33 1179.45 946.71 1179.47 973.09 C1179.48 1000.39 1179.48 1027.68 1179.46 1054.98 C1179.46 1057.91 1179.46 1060.83 1179.46 1063.76 C1179.46 1064.48 1179.46 1065.2 1179.46 1065.94 C1179.45 1077.34 1179.46 1088.74 1179.47 1100.14 C1179.48 1111.34 1179.48 1122.54 1179.46 1133.74 C1179.45 1139.73 1179.45 1145.73 1179.47 1151.72 C1179.48 1157.17 1179.47 1162.62 1179.46 1168.06 C1179.45 1170.03 1179.45 1171.99 1179.47 1173.96 C1179.48 1176.61 1179.47 1179.27 1179.45 1181.93 C1179.46 1182.69 1179.47 1183.46 1179.48 1184.25 C1179.41 1189.15 1178.46 1191.69 1174.95 1195.13 C1171.84 1196.68 1168.54 1196.26 1165.12 1196.25 C1164.3 1196.26 1163.47 1196.26 1162.62 1196.26 C1159.83 1196.26 1157.03 1196.26 1154.24 1196.26 C1152.22 1196.26 1150.2 1196.26 1148.18 1196.26 C1142.59 1196.27 1136.99 1196.26 1131.4 1196.26 C1125.33 1196.26 1119.26 1196.26 1113.19 1196.27 C1102.54 1196.27 1091.88 1196.27 1081.23 1196.27 C1069.79 1196.27 1058.36 1196.27 1046.92 1196.28 C1045.84 1196.28 1045.84 1196.28 1044.74 1196.28 C1041.8 1196.28 1038.86 1196.28 1035.93 1196.28 C1005.25 1196.29 974.58 1196.29 943.91 1196.29 C940.6 1196.29 937.3 1196.29 934 1196.29 C933.18 1196.29 932.36 1196.29 931.51 1196.29 C913.36 1196.3 895.21 1196.3 877.06 1196.3 C869.59 1196.3 862.13 1196.3 854.66 1196.3 C853.42 1196.3 853.42 1196.3 852.16 1196.3 C804.86 1196.31 757.56 1196.31 710.26 1196.31 C708.49 1196.31 706.72 1196.31 704.95 1196.31 C696.95 1196.31 688.96 1196.31 680.96 1196.31 C677.39 1196.31 673.83 1196.31 670.26 1196.31 C668.48 1196.31 666.69 1196.31 664.91 1196.31 C608.46 1196.31 552.02 1196.32 495.57 1196.33 C481.35 1196.34 467.13 1196.34 452.91 1196.34 C452.03 1196.34 451.15 1196.34 450.25 1196.34 C423.28 1196.35 396.3 1196.35 369.32 1196.36 C368.48 1196.36 367.63 1196.36 366.76 1196.36 C348.18 1196.36 329.59 1196.36 311.01 1196.36 C304.36 1196.36 297.71 1196.36 291.06 1196.36 C289.41 1196.36 287.76 1196.36 286.1 1196.36 C259.72 1196.36 233.33 1196.36 206.94 1196.37 C180.37 1196.38 153.81 1196.38 127.24 1196.37 C123.57 1196.37 119.91 1196.37 116.24 1196.37 C115.52 1196.37 114.8 1196.37 114.06 1196.37 C102.65 1196.37 91.25 1196.37 79.84 1196.38 C68.64 1196.39 57.44 1196.39 46.23 1196.38 C40.24 1196.38 34.24 1196.38 28.24 1196.38 C22.79 1196.39 17.35 1196.39 11.9 1196.38 C9.93 1196.38 7.96 1196.38 6 1196.38 C3.34 1196.39 0.68 1196.39 -1.97 1196.38 C-3.13 1196.38 -3.13 1196.38 -4.3 1196.39 C-11.31 1196.34 -11.31 1196.34 -14.05 1194.13 C-17.13 1189.47 -17.48 1185.26 -17.43 1179.83 C-17.43 1179 -17.44 1178.18 -17.44 1177.33 C-17.45 1174.55 -17.44 1171.77 -17.43 1168.99 C-17.43 1166.98 -17.44 1164.96 -17.44 1162.95 C-17.45 1157.38 -17.45 1151.81 -17.44 1146.24 C-17.43 1140.19 -17.44 1134.14 -17.45 1128.09 C-17.46 1117.49 -17.46 1106.88 -17.45 1096.27 C-17.44 1084.88 -17.44 1073.5 -17.45 1062.11 C-17.45 1061.39 -17.45 1060.67 -17.45 1059.93 C-17.45 1057.01 -17.45 1054.08 -17.45 1051.15 C-17.47 1023.88 -17.47 996.6 -17.46 969.33 C-17.46 968.52 -17.46 967.71 -17.46 966.88 C-17.46 966.07 -17.46 965.26 -17.46 964.43 C-17.45 939.77 -17.45 915.12 -17.45 890.47 C-17.45 888.82 -17.45 887.17 -17.45 885.52 C-17.45 878.89 -17.45 872.26 -17.46 865.63 C-17.46 847.1 -17.46 828.57 -17.46 810.04 C-17.46 809.19 -17.46 808.35 -17.46 807.48 C-17.46 780.58 -17.46 753.68 -17.45 726.78 C-17.45 725.91 -17.45 725.03 -17.45 724.13 C-17.45 709.96 -17.44 695.79 -17.44 681.62 C-17.43 625.4 -17.43 569.19 -17.44 512.97 C-17.45 498.81 -17.45 484.64 -17.45 470.48 C-17.45 469.6 -17.45 468.73 -17.45 467.83 C-17.46 440.96 -17.46 414.09 -17.46 387.22 C-17.46 386.38 -17.46 385.53 -17.46 384.66 C-17.46 366.15 -17.46 347.64 -17.46 329.13 C-17.45 322.51 -17.45 315.88 -17.45 309.26 C-17.45 307.61 -17.45 305.96 -17.45 304.32 C-17.45 279.67 -17.45 255.02 -17.46 230.37 C-17.46 229.57 -17.46 228.76 -17.46 227.92 C-17.46 227.12 -17.46 226.31 -17.46 225.48 C-17.47 198.29 -17.47 171.09 -17.45 143.9 C-17.45 140.98 -17.45 138.06 -17.45 135.14 C-17.44 134.43 -17.44 133.71 -17.44 132.97 C-17.44 121.62 -17.44 110.26 -17.45 98.9 C-17.46 87.75 -17.46 76.59 -17.44 65.43 C-17.43 59.46 -17.43 53.49 -17.44 47.52 C-17.45 42.09 -17.45 36.67 -17.43 31.24 C-17.43 29.28 -17.43 27.32 -17.44 25.37 C-17.45 22.72 -17.44 20.07 -17.43 17.43 C-17.43 16.66 -17.44 15.9 -17.45 15.12 C-17.39 9.38 -16.14 5.22 -12.05 1.13 C-8.2 -0.34 -4.06 -0.01 0 0 Z M343.95 246.13 C343.74 247.47 343.58 248.82 343.45 250.17 C343.37 251 343.28 251.82 343.2 252.68 C343.12 253.55 343.03 254.42 342.95 255.32 C342.78 257.02 342.62 258.72 342.45 260.42 C342.38 261.18 342.3 261.94 342.23 262.72 C342.02 264.5 341.75 266.27 341.43 268.04 C340.95 271.15 340.78 274.12 340.7 277.26 C340.67 278.4 340.64 279.53 340.6 280.7 C340.54 283.08 340.48 285.45 340.43 287.83 C340.4 288.96 340.36 290.09 340.33 291.26 C340.3 292.29 340.28 293.32 340.25 294.38 C339.95 297.13 339.95 297.13 338.95 298.88 C337.59 301.94 337.7 304.46 337.7 307.8 C337.7 308.47 337.69 309.14 337.69 309.83 C337.68 312.1 337.69 314.36 337.7 316.62 C337.7 318.26 337.69 319.89 337.69 321.53 C337.68 326.03 337.68 330.54 337.69 335.04 C337.7 339.89 337.69 344.75 337.68 349.6 C337.67 358.02 337.67 366.45 337.67 374.87 C337.68 387.08 337.67 399.29 337.65 411.49 C337.62 431.35 337.6 451.2 337.59 471.05 C337.59 472.24 337.59 473.43 337.59 474.65 C337.58 491.47 337.57 508.29 337.57 525.11 C337.57 526.29 337.57 527.47 337.57 528.68 C337.57 529.86 337.57 531.04 337.57 532.26 C337.56 552 337.54 571.75 337.51 591.49 C337.49 603.65 337.49 615.8 337.5 627.96 C337.51 636.32 337.5 644.68 337.48 653.04 C337.47 657.85 337.46 662.65 337.48 667.46 C337.53 689.45 337.36 711.48 332.95 733.13 C332.62 733.46 332.29 733.79 331.95 734.13 C331.85 736.72 331.81 739.3 331.81 741.9 C331.79 743.53 331.77 745.15 331.75 746.78 C331.72 749.34 331.7 751.91 331.7 754.47 C331.69 764.03 331.47 772.05 327.09 780.79 C325.55 783.96 325.24 786.64 324.95 790.13 C324.37 793.17 324.2 793.88 321.95 796.13 C321.57 797.16 321.19 798.18 320.8 799.24 C318.74 804.22 315.11 807.59 311.32 811.32 C310.65 812.01 309.98 812.71 309.28 813.43 C302.62 820.07 296.41 823.1 287.08 823.72 C284.6 824.19 283.68 825.01 281.79 826.64 C275.76 830.57 268.49 829.76 261.56 829.61 C259.13 829.56 256.7 829.55 254.26 829.55 C252.71 829.53 251.17 829.52 249.62 829.5 C248.89 829.49 248.17 829.49 247.42 829.48 C243.74 829.4 242.1 829.22 238.95 827.13 C236.21 826.67 236.21 826.67 233.26 826.5 C232.27 826.43 231.27 826.35 230.25 826.28 C229.49 826.23 228.73 826.18 227.95 826.13 C227.95 825.47 227.95 824.81 227.95 824.13 C226.92 823.88 225.89 823.63 224.82 823.38 C219.71 821.91 215.93 819.59 212.95 815.13 C211 814.12 211 814.12 208.76 813.32 C201.52 810.26 196.72 805.28 191.95 799.13 C191.38 798.41 190.81 797.7 190.23 796.96 C187.6 793.63 185.01 790.31 182.7 786.75 C181.23 784.55 179.84 782.93 177.95 781.13 C176.96 779.64 176.96 779.64 175.95 778.13 C175.29 778.13 174.63 778.13 173.95 778.13 C173.72 777.26 173.5 776.4 173.26 775.5 C171.32 770.5 168.81 767.23 164.16 764.48 C158.32 762.13 151.89 762.62 145.7 762.63 C144.42 762.6 143.14 762.57 141.82 762.54 C140.6 762.54 139.38 762.54 138.12 762.53 C136.45 762.52 136.45 762.52 134.75 762.51 C133.83 762.72 132.9 762.92 131.95 763.13 C130.91 764.77 129.91 766.44 128.95 768.13 C126.74 768.69 126.74 768.69 124.2 768.62 C123.28 768.63 122.36 768.63 121.42 768.63 C119.48 768.59 117.55 768.54 115.62 768.49 C112.95 768.5 110.55 768.53 107.95 769.13 C105.7 772.09 105.7 772.09 103.95 775.13 C100.67 775.54 100.67 775.54 97.01 775.19 C92.31 774.81 92.31 774.81 87.96 776.18 C86.46 777.67 86.46 777.67 84.95 780.13 C84.62 780.46 84.29 780.79 83.95 781.13 C82.01 781.04 80.07 780.93 78.14 780.82 C74.9 780.7 74.9 780.7 71.95 781.13 C69.34 783.87 69.34 783.87 67.95 787.13 C67.29 787.43 66.62 787.74 65.94 788.05 C63.8 788.95 63.8 788.95 63.05 791.05 C60.67 802.98 63.8 813.38 68.95 824.13 C69.25 824.76 69.55 825.4 69.87 826.05 C73.48 833.58 77.23 840.96 81.72 848.01 C83.06 850.31 84.02 852.64 84.95 855.13 C85.61 855.13 86.27 855.13 86.95 855.13 C87.22 855.85 87.49 856.57 87.76 857.32 C89.23 860.78 90.77 863.95 93.45 866.63 C94.95 868.13 94.95 868.13 96.32 870.5 C98.2 873.53 100.37 875.67 102.95 878.13 C107.95 883.13 107.95 883.13 110.39 885.63 C112.96 888.2 112.96 888.2 115.95 890.63 C119.53 893.62 122.75 896.86 125.95 900.25 C128.13 902.3 130.36 903.64 132.95 905.13 C133.91 905.87 133.91 905.87 134.89 906.63 C137.03 908.27 137.03 908.27 140.01 909.63 C142.95 911.13 142.95 911.13 144.39 912.63 C146.82 914.97 149.85 915.85 152.95 917.13 C154.12 917.87 154.12 917.87 155.32 918.63 C158.4 920.39 161.47 921.31 164.86 922.28 C166.95 923.13 166.95 923.13 168.24 924.63 C170.94 927 174.25 927.12 177.7 927.63 C179.09 927.84 180.48 928.06 181.87 928.28 C182.49 928.37 183.1 928.47 183.73 928.56 C185.95 929.13 185.95 929.13 189.12 930.62 C193.43 932.52 197.59 932.78 202.24 933.04 C203.11 933.1 203.98 933.16 204.87 933.22 C207.63 933.41 210.38 933.58 213.14 933.75 C215.9 933.93 218.67 934.12 221.43 934.3 C223.15 934.42 224.86 934.53 226.58 934.63 C227.35 934.68 228.13 934.73 228.93 934.79 C229.96 934.85 229.96 934.85 231 934.91 C233.05 935.14 234.95 935.61 236.95 936.13 C256.37 937.44 275.91 935.38 295.22 933.48 C298.53 933.17 301.84 932.9 305.15 932.65 C308.79 932.32 311.83 931.73 315.2 930.25 C319.62 928.49 323.97 927.46 328.64 926.63 C333.66 925.69 337.77 924.62 342.2 922.1 C344.05 921.07 345.89 920.34 347.89 919.63 C354.69 917.15 361 914.32 367.03 910.28 C368.95 909.13 368.95 909.13 371.33 908.23 C374.44 906.92 376.87 905.19 379.57 903.19 C380.52 902.5 381.46 901.81 382.43 901.1 C384.44 899.52 386.19 897.97 387.95 896.13 C390.7 893.78 393.48 891.49 396.35 889.27 C402.83 884.24 408.26 879.52 411.95 872.13 C413.26 870.77 414.6 869.44 415.95 868.13 C419.75 864.05 422.61 860.24 424.95 855.13 C425.94 853.45 426.94 851.79 427.95 850.13 C428.68 848.9 429.41 847.66 430.14 846.43 C430.93 845.1 431.72 843.77 432.51 842.44 C433.11 841.43 433.11 841.43 433.72 840.39 C435.31 837.73 436.75 835.33 438.95 833.13 C439.79 829.58 440.42 826 441.07 822.41 C441.99 818.96 442.57 818.5 444.95 816.13 C445.74 813.61 446.42 811.19 447.01 808.63 C448.7 801.5 448.7 801.5 450.95 798.13 C451.99 794.2 452.18 790.3 452.38 786.24 C452.45 784.9 452.53 783.55 452.6 782.21 C452.71 780.11 452.82 778.02 452.92 775.93 C453.56 762.78 453.56 762.78 455.46 756.82 C456.91 752.1 457.31 747.52 457.52 742.61 C457.56 741.78 457.6 740.95 457.64 740.09 C458.08 730.29 458.18 720.48 458.26 710.66 C458.28 708.52 458.3 706.38 458.32 704.24 C458.38 698.34 458.43 692.43 458.47 686.52 C458.5 682.69 458.54 678.86 458.57 675.03 C459.19 598.36 459.1 521.68 459.08 445.01 C459.07 429.27 459.08 413.52 459.08 397.78 C459.08 379.22 459.09 360.66 459.08 342.09 C459.08 340.13 459.08 338.16 459.08 336.19 C459.08 335.22 459.08 334.25 459.08 333.25 C459.08 326.47 459.08 319.68 459.09 312.9 C459.09 304.71 459.09 296.52 459.08 288.33 C459.08 284.17 459.08 280 459.08 275.84 C459.08 272.04 459.08 268.23 459.08 264.43 C459.08 263.05 459.08 261.67 459.08 260.3 C459.08 258.43 459.08 256.57 459.08 254.71 C459.07 253.67 459.07 252.63 459.07 251.57 C459.11 249.12 459.11 249.12 457.95 247.13 C455.01 245.29 452.77 244.88 449.34 244.88 C448.42 244.88 447.49 244.87 446.55 244.87 C445.04 244.88 445.04 244.88 443.51 244.88 C442.44 244.88 441.38 244.88 440.29 244.88 C436.77 244.88 433.26 244.89 429.75 244.9 C427.31 244.9 424.88 244.9 422.44 244.9 C417.34 244.9 412.24 244.91 407.13 244.92 C400.57 244.94 394.02 244.94 387.46 244.94 C382.43 244.94 377.4 244.95 372.38 244.95 C369.96 244.96 367.54 244.96 365.12 244.96 C361.75 244.96 358.38 244.97 355.01 244.98 C353.49 244.98 353.49 244.98 351.95 244.98 C351.03 244.99 350.12 244.99 349.18 244.99 C347.98 245 347.98 245 346.76 245 C344.93 244.93 344.93 244.93 343.95 246.13 Z M599.95 246.13 C599.85 247.6 599.82 249.07 599.82 250.54 C599.82 251.5 599.82 252.47 599.81 253.46 C599.81 254.53 599.82 255.6 599.82 256.7 C599.82 257.83 599.81 258.97 599.81 260.13 C599.81 263.3 599.81 266.47 599.81 269.63 C599.81 273.07 599.8 276.51 599.8 279.94 C599.79 286.77 599.79 293.6 599.79 300.42 C599.79 308.59 599.78 316.77 599.78 324.94 C599.76 344.69 599.75 364.45 599.75 384.2 C599.75 393.54 599.74 402.88 599.74 412.22 C599.73 444.17 599.72 476.12 599.71 508.07 C599.71 510.08 599.71 512.09 599.71 514.09 C599.71 516.11 599.71 518.12 599.71 520.13 C599.71 524.17 599.71 528.2 599.71 532.24 C599.71 533.24 599.71 534.24 599.71 535.27 C599.7 567.73 599.69 600.19 599.67 632.66 C599.64 666.95 599.63 701.25 599.63 735.54 C599.63 739.3 599.63 743.06 599.63 746.83 C599.63 747.75 599.63 748.68 599.63 749.63 C599.62 764.57 599.61 779.5 599.6 794.43 C599.58 809.43 599.58 824.43 599.59 839.43 C599.59 848.35 599.59 857.27 599.57 866.19 C599.56 872.14 599.57 878.09 599.58 884.04 C599.58 887.43 599.58 890.83 599.57 894.22 C599.56 897.87 599.57 901.52 599.58 905.17 C599.57 906.24 599.56 907.3 599.55 908.4 C599.56 909.37 599.57 910.34 599.58 911.34 C599.58 912.17 599.57 913.01 599.57 913.87 C600.05 916.72 600.92 918.08 602.95 920.13 C606.03 920.52 608.76 920.65 611.85 920.62 C612.77 920.62 613.69 920.62 614.64 920.63 C617.74 920.64 620.84 920.62 623.94 920.6 C626.16 920.6 628.38 920.6 630.6 920.6 C636.65 920.61 642.69 920.59 648.74 920.57 C655.09 920.54 661.44 920.55 667.78 920.54 C678.47 920.54 689.16 920.52 699.85 920.48 C710.79 920.45 721.72 920.43 732.66 920.42 C733.33 920.42 734 920.42 734.69 920.42 C737.38 920.42 740.08 920.42 742.77 920.42 C753.89 920.41 765.01 920.39 776.13 920.37 C778.64 920.37 781.15 920.36 783.66 920.36 C816.84 920.37 816.84 920.37 850.01 919.74 C851.09 919.71 852.17 919.68 853.29 919.65 C859.4 919.42 865.28 918.69 871.29 917.6 C875.22 916.9 879.16 916.49 883.14 916.13 C883.99 916.04 884.85 915.96 885.73 915.88 C891.58 915.34 897.43 914.98 903.29 914.7 C904.77 914.62 906.24 914.55 907.71 914.47 C910.61 914.32 913.5 914.2 916.4 914.09 C923.42 913.77 929.24 913 935.65 910.04 C940.39 908.16 945.5 908.26 950.54 907.99 C955.96 907.61 960.07 906.45 964.96 904.07 C967.34 902.94 969.7 902.28 972.26 901.69 C980.86 899.47 988.66 896.21 995.95 891.13 C998.27 890.11 1000.61 889.11 1002.95 888.13 C1003.77 887.63 1004.6 887.14 1005.45 886.63 C1007.95 885.13 1007.95 885.13 1011.14 884 C1015.75 882.12 1019 878.64 1022.58 875.28 C1025.24 872.87 1027.93 871.04 1030.95 869.13 C1031.96 868.14 1032.96 867.14 1033.95 866.13 C1035.08 865.12 1036.23 864.12 1037.39 863.13 C1038 862.61 1038.6 862.09 1039.23 861.55 C1040.57 860.44 1041.97 859.39 1043.39 858.38 C1043.9 857.97 1044.42 857.55 1044.95 857.13 C1044.95 856.47 1044.95 855.81 1044.95 855.13 C1045.73 854.88 1046.52 854.63 1047.32 854.38 C1050.4 852.91 1050.62 852.14 1051.95 849.13 C1054.02 846.92 1056.2 844.9 1058.45 842.88 C1061.05 840.02 1062.37 837.44 1063.98 833.98 C1065.24 831.57 1066.97 829.98 1068.95 828.13 C1069.97 826.48 1070.97 824.81 1071.95 823.13 C1072.52 822.22 1073.08 821.3 1073.67 820.37 C1077.09 814.74 1079.77 809.63 1081.25 803.19 C1081.95 801.13 1081.95 801.13 1083.4 799.7 C1085.51 797.56 1086.08 795.4 1087.01 792.57 C1088.74 787.34 1088.74 787.34 1090.95 785.13 C1091.46 782.48 1091.46 782.48 1091.7 779.39 C1091.87 777.66 1091.87 777.66 1092.04 775.9 C1092.27 773.48 1092.5 771.05 1092.72 768.62 C1092.83 767.47 1092.95 766.32 1093.07 765.14 C1093.22 763.55 1093.22 763.55 1093.36 761.94 C1094 758.89 1094.99 757.49 1096.95 755.13 C1098.34 749.8 1098.1 744.29 1098.07 738.82 C1098.07 737.85 1098.07 736.88 1098.06 735.89 C1098.02 729.8 1097.91 723.71 1097.64 717.63 C1097.58 716.32 1097.52 715.01 1097.46 713.66 C1096.91 709.89 1095.69 707.49 1093.95 704.13 C1093.37 701.71 1092.88 699.27 1092.45 696.82 C1091.53 691.8 1090.43 687.01 1088.68 682.22 C1087.89 679.96 1087.31 677.69 1086.7 675.38 C1085.09 669.91 1082.43 665.15 1079.66 660.18 C1078.26 657.69 1076.95 655.19 1075.7 652.63 C1074.23 649.69 1072.67 646.92 1070.95 644.13 C1070.33 642.97 1069.71 641.82 1069.07 640.63 C1067.15 637.24 1064.78 634.82 1061.95 632.13 C1059.38 629.18 1057.04 626.27 1054.89 623 C1053.07 620.31 1051.27 618.38 1048.95 616.13 C1047.82 614.8 1046.7 613.46 1045.57 612.13 C1042.63 608.75 1039.78 606.49 1035.95 604.13 C1033.16 602.11 1030.4 600.07 1027.63 598.03 C1024.99 596.1 1024.99 596.1 1022.22 594.5 C1019.95 593.13 1019.95 593.13 1018.14 591.19 C1015.63 588.83 1013.15 587.59 1010.05 586.15 C1007.59 584.95 1005.3 583.54 1002.95 582.13 C991.81 576.14 978.93 569.48 965.95 570.13 C965.95 569.47 965.95 568.81 965.95 568.13 C964.3 567.8 962.65 567.47 960.95 567.13 C961.49 563.33 962.88 561.98 965.89 559.69 C970.63 556.16 975.63 553.65 980.95 551.13 C984.26 549.42 987.29 547.78 989.95 545.13 C992.09 542.98 994.36 541.65 997.01 540.2 C999.11 539.04 1001.16 537.82 1003.2 536.57 C1003.84 536.17 1004.49 535.78 1005.15 535.37 C1006.99 534.1 1008.38 532.71 1009.95 531.13 C1011.56 529.82 1013.19 528.53 1014.82 527.25 C1020.21 522.97 1024.69 518.52 1028.95 513.13 C1030.73 511.27 1032.59 509.52 1034.45 507.75 C1036.78 505.31 1038.27 503.03 1039.95 500.13 C1040.67 499.44 1040.67 499.44 1041.41 498.73 C1043.12 496.95 1043.98 495.3 1045.01 493.07 C1046.18 490.55 1046.96 489.12 1048.95 487.13 C1049.66 485.46 1049.66 485.46 1050.39 483.75 C1051.95 480.13 1051.95 480.13 1053.45 478.25 C1055.74 475.01 1056.24 471.5 1057.11 467.69 C1057.95 465.13 1057.95 465.13 1059.48 463.68 C1062.24 460.76 1061.83 456.4 1062.23 452.55 C1062.95 449.13 1062.95 449.13 1064.96 445.95 C1067.95 441.06 1067.67 435.84 1067.76 430.25 C1067.79 429.12 1067.82 427.98 1067.85 426.82 C1068.9 403.82 1068.9 403.82 1063.92 381.68 C1062.81 378.77 1062.38 376.03 1061.95 372.94 C1061.26 368.26 1060.03 364.51 1057.95 360.28 C1056.92 358.07 1056.17 355.89 1055.45 353.57 C1053.21 346.61 1049.61 340.42 1045.95 334.13 C1045.2 332.82 1044.45 331.5 1043.7 330.19 C1043.12 329.18 1042.54 328.17 1041.95 327.13 C1041.29 327.13 1040.63 327.13 1039.95 327.13 C1039.74 326.28 1039.54 325.44 1039.32 324.57 C1037.84 320.85 1036.05 318.71 1033.4 315.79 C1031.61 313.73 1030.34 311.47 1028.95 309.13 C1027.64 307.78 1026.3 306.44 1024.95 305.13 C1024.62 304.47 1024.29 303.81 1023.95 303.13 C1023.31 302.84 1022.67 302.55 1022.01 302.25 C1019.48 300.87 1019.21 299.65 1017.95 297.13 C1017.29 296.8 1016.63 296.47 1015.95 296.13 C1013.95 295.13 1013.95 295.13 1013.09 293.19 C1011.63 290.55 1010.43 290.21 1007.64 289.19 C1003.45 287.48 1001.04 285.47 997.95 282.13 C993.84 279.05 989.62 277 984.9 275.06 C982.95 274.13 982.95 274.13 980.95 272.13 C979.36 271.43 977.76 270.79 976.14 270.19 C972.48 268.78 969.28 267.2 965.95 265.13 C964.73 264.59 963.5 264.07 962.26 263.57 C958.95 262.13 958.95 262.13 956.95 260.13 C954.99 259.56 954.99 259.56 952.76 259.19 C943.03 257.21 943.03 257.21 939.95 254.13 C937.12 253.75 934.29 253.42 931.45 253.13 C923.08 252.26 923.08 252.26 921.95 251.13 C918.7 250.89 915.46 250.73 912.2 250.61 C907.5 250.38 903.49 249.44 898.95 248.13 C895.83 247.66 892.71 247.36 889.57 247.07 C881.08 246.26 881.08 246.26 879.95 245.13 C878.46 245.03 876.96 245 875.47 245 C874.5 245 873.53 245 872.52 244.99 C870.9 245 870.9 245 869.24 245 C868.1 245 866.96 245 865.79 245 C862.61 244.99 859.44 244.99 856.26 245 C852.84 245 849.42 245 846 244.99 C839.29 244.99 832.59 244.99 825.88 244.99 C820.43 244.99 814.98 244.99 809.53 244.99 C808.76 244.99 807.99 244.99 807.19 244.99 C805.62 244.99 804.05 244.99 802.47 244.99 C787.72 244.99 772.96 244.99 758.2 245 C745.52 245 732.85 245 720.17 245 C705.47 244.99 690.77 244.99 676.06 244.99 C674.5 244.99 672.93 244.99 671.36 244.99 C670.59 244.99 669.82 244.99 669.03 244.99 C663.58 245 658.14 244.99 652.69 244.99 C646.06 244.99 639.43 244.99 632.8 244.99 C629.42 245 626.03 245 622.64 244.99 C618.98 244.99 615.32 245 611.65 245 C610.57 245 609.49 245 608.38 244.99 C607.4 245 606.43 245 605.43 245 C604.16 245 604.16 245 602.86 245 C600.94 244.92 600.94 244.92 599.95 246.13 Z " fill="#FA0202" transform="translate(64.05082315206528,46.87234950065613)"/>
<path d="M0 0 C3.26 0.08 6.53 0.15 9.79 0.21 C15.95 0.34 22.11 0.51 28.27 0.7 C29.12 0.73 29.97 0.75 30.85 0.78 C39.52 1.07 47.76 1.85 56.26 3.62 C64.82 5.33 73.51 5.44 82.21 5.71 C91.12 6.01 98.82 6.82 107.32 9.76 C111.76 11.18 116.21 11.69 120.83 12.2 C127.76 13.08 134.11 14.27 140.67 16.76 C143.24 17.69 145.73 18.26 148.39 18.83 C164.11 23.01 182.67 34.88 191.27 48.7 C192.45 51.01 193.35 53.26 194.27 55.7 C194.78 56.59 195.3 57.48 195.83 58.39 C197.63 62.54 198.15 66.53 198.74 71 C199.13 73.91 199.13 73.91 201.27 76.7 C201.54 78.79 201.54 78.79 201.57 81.23 C201.59 82.15 201.61 83.06 201.62 84 C201.63 85.48 201.63 85.48 201.64 87 C201.65 88.02 201.66 89.04 201.67 90.09 C201.68 92.25 201.69 94.41 201.69 96.57 C201.71 99.86 201.76 103.15 201.81 106.44 C201.82 108.54 201.82 110.64 201.83 112.75 C201.85 113.72 201.87 114.7 201.89 115.71 C201.85 121.62 200.93 125.29 197.4 130.08 C195.92 132.2 195.67 133.9 195.64 136.45 C195.41 140.21 194.77 141.81 192.27 144.7 C191.81 145.86 191.36 147.01 190.89 148.2 C189.27 151.7 189.27 151.7 186.71 153.7 C183.48 156.35 183.36 158.73 182.27 162.7 C179.96 165.83 179.96 165.83 177.27 168.7 C176.44 169.61 175.62 170.52 174.77 171.45 C172.28 173.69 170.34 174.51 167.27 175.7 C166.94 176.69 166.61 177.68 166.27 178.7 C165.2 178.76 164.12 178.83 163.02 178.89 C159.13 179.31 159.13 179.31 157.33 182.27 C155.27 184.7 155.27 184.7 153.25 185.03 C151.25 185.02 149.26 184.87 147.27 184.7 C147.27 185.36 147.27 186.02 147.27 186.7 C146.71 186.91 146.16 187.11 145.59 187.32 C144.86 187.59 144.14 187.86 143.39 188.14 C142.67 188.41 141.95 188.67 141.21 188.95 C139.23 189.68 139.23 189.68 137.27 190.7 C135.06 190.83 132.85 190.93 130.64 191.02 C124.42 191.41 120.57 192.5 115.27 195.7 C112.04 196.78 109.66 196.85 106.27 196.88 C105.03 196.89 103.8 196.9 102.53 196.92 C101.87 196.92 101.21 196.93 100.53 196.93 C98.47 196.95 96.4 196.97 94.34 197 C88.48 197.07 82.61 197.13 76.74 197.18 C73.15 197.21 69.57 197.25 65.98 197.3 C64.61 197.32 63.24 197.33 61.87 197.34 C59.96 197.35 58.05 197.37 56.14 197.4 C54.51 197.42 54.51 197.42 52.84 197.43 C50.1 197.45 50.1 197.45 48.27 199.7 C45.89 199.98 45.89 199.98 42.85 200.02 C41.7 200.04 40.56 200.06 39.38 200.08 C37.51 200.1 37.51 200.1 35.59 200.12 C34.3 200.14 33 200.16 31.66 200.18 C28.15 200.23 24.64 200.27 21.13 200.3 C18.24 200.34 15.35 200.37 12.46 200.41 C5.34 200.5 -1.78 200.58 -8.91 200.64 C-14 200.69 -19.1 200.76 -24.2 200.83 C-27.65 200.88 -31.1 200.91 -34.55 200.93 C-36.08 200.95 -37.61 200.96 -39.14 200.99 C-41.21 201.02 -43.29 201.03 -45.36 201.03 C-46.49 201.04 -47.61 201.05 -48.77 201.06 C-52.38 200.63 -53.97 200.1 -56.73 197.7 C-61.31 190.9 -61.37 183.64 -61.45 175.68 C-61.47 174.42 -61.5 173.16 -61.53 171.86 C-61.6 168.49 -61.66 165.12 -61.7 161.75 C-61.75 158.4 -61.82 155.04 -61.89 151.69 C-62.04 144.18 -62.16 136.67 -62.26 129.15 C-62.3 126.38 -62.35 123.61 -62.39 120.84 C-62.65 104.18 -62.8 87.52 -62.74 70.86 C-62.73 67.75 -62.73 64.63 -62.73 61.51 C-62.73 56.6 -62.69 51.69 -62.63 46.78 C-62.62 44.83 -62.61 42.88 -62.61 40.93 C-62.63 17.45 -62.63 17.45 -55.73 7.7 C-40.09 -3.43 -18.19 -0.44 0 0 Z " fill="#FA0202" transform="translate(846.7314453125,668.296875)"/>
<path d="M0 0 C1.4 -0 1.4 -0 2.84 -0.01 C5.94 -0.01 9.05 -0.01 12.16 -0 C14.35 -0 16.54 -0.01 18.73 -0.01 C23.35 -0.01 27.96 -0.01 32.58 -0 C38.38 0 44.18 0 49.98 -0 C71.17 -0.02 92.35 0 113.53 0.51 C114.63 0.53 114.63 0.53 115.75 0.56 C140.61 1.1 140.61 1.1 150.37 5.41 C154.36 6.66 158.6 6.91 162.76 7.22 C168.11 7.72 171.17 9.4 175.66 12.13 C178.26 12.97 180.85 13.6 183.52 14.22 C186.22 15.37 186.5 16.52 187.66 19.13 C190.13 19.87 190.13 19.87 192.66 20.13 C193.32 20.46 193.98 20.79 194.66 21.13 C194.66 21.79 194.66 22.45 194.66 23.13 C195.32 23.13 195.98 23.13 196.66 23.13 C196.66 23.79 196.66 24.45 196.66 25.13 C197.21 25.32 197.77 25.5 198.34 25.69 C201.75 27.81 203.5 30.81 205.66 34.13 C206.17 34.89 206.69 35.66 207.22 36.44 C208.95 39.68 210.27 43.01 211.59 46.43 C212.65 49.23 212.65 49.23 214.18 52.18 C216.11 56.7 216.2 61.08 216.31 65.94 C216.35 67.33 216.35 67.33 216.39 68.74 C216.44 70.69 216.49 72.64 216.53 74.59 C216.59 77.56 216.69 80.52 216.8 83.48 C216.85 85.38 216.89 87.29 216.93 89.19 C216.97 90.07 217 90.94 217.03 91.85 C217.11 97.71 216.09 102.27 212.66 107.13 C211.67 107.62 211.67 107.62 210.66 108.13 C210.69 108.74 210.73 109.36 210.76 109.99 C210.79 110.8 210.82 111.61 210.84 112.44 C210.88 113.24 210.91 114.04 210.95 114.87 C210.58 117.69 209.68 118.21 207.66 120.13 C206.54 122.7 205.64 125.3 204.72 127.95 C204.37 128.67 204.02 129.39 203.66 130.13 C202.67 130.46 201.68 130.79 200.66 131.13 C200.37 131.93 200.08 132.74 199.78 133.57 C199.41 134.41 199.04 135.26 198.66 136.13 C197.93 136.4 197.21 136.67 196.47 136.94 C193.39 138.24 192.44 139.34 190.34 141.88 C186.95 145.95 183.28 149.48 178.66 152.13 C177.67 152.13 176.68 152.13 175.66 152.13 C175.33 153.12 175 154.11 174.66 155.13 C173.69 155.25 172.72 155.38 171.72 155.5 C170.71 155.71 169.7 155.92 168.66 156.13 C168.33 156.79 168 157.45 167.66 158.13 C163.63 161.21 160.65 161.42 155.66 161.13 C155.66 161.79 155.66 162.45 155.66 163.13 C135.85 169.36 116.17 168.65 95.66 168.13 C95.33 168.79 95 169.45 94.66 170.13 C92 170.52 92 170.52 88.45 170.73 C86.52 170.85 86.52 170.85 84.54 170.97 C83.16 171.04 81.78 171.12 80.41 171.19 C77.76 171.35 75.1 171.51 72.45 171.66 C70.68 171.76 70.68 171.76 68.87 171.86 C66.51 172 64.16 172.17 61.81 172.37 C49.09 173.44 36.36 173.46 23.61 173.53 C20.62 173.55 17.64 173.59 14.66 173.64 C11.03 173.7 7.4 173.73 3.76 173.74 C2.39 173.75 1.01 173.76 -0.36 173.79 C-2.28 173.83 -4.19 173.83 -6.11 173.83 C-7.74 173.84 -7.74 173.84 -9.4 173.86 C-12.61 173.06 -14.44 172.1 -16.41 169.4 C-18.69 163.87 -18.01 157.43 -17.96 151.53 C-17.96 149.93 -17.97 148.33 -17.98 146.73 C-17.99 142.39 -17.97 138.05 -17.95 133.71 C-17.93 129.16 -17.94 124.62 -17.94 120.08 C-17.94 112.45 -17.92 104.83 -17.89 97.2 C-17.85 88.38 -17.84 79.56 -17.85 70.74 C-17.85 62.25 -17.84 53.77 -17.82 45.29 C-17.81 41.67 -17.81 38.06 -17.81 34.45 C-17.81 30.2 -17.8 25.95 -17.77 21.7 C-17.77 20.14 -17.77 18.58 -17.77 17.02 C-17.77 14.89 -17.76 12.76 -17.74 10.64 C-17.73 9.45 -17.73 8.25 -17.73 7.03 C-17.34 4.13 -17.34 4.13 -15.95 2.27 C-11.5 -0.88 -5.22 -0.01 0 0 Z " fill="#FA0202" transform="translate(801.34375,392.87060546875)"/>
<path d="M0 0 C0.33 0 0.66 0 1 0 C1 28.38 1 56.76 1 86 C0.67 86 0.34 86 0 86 C0 57.62 0 29.24 0 0 Z " fill="#000000" transform="translate(403,349)"/>
<path d="M0 0 C13.2 0 26.4 0 40 0 C40 0.33 40 0.66 40 1 C26.8 1 13.6 1 0 1 C0 0.67 0 0.34 0 0 Z " fill="#1D0000" transform="translate(898,866)"/>
<path d="M0 0 C12.21 0 24.42 0 37 0 C37 0.33 37 0.66 37 1 C24.79 1 12.58 1 0 1 C0 0.67 0 0.34 0 0 Z " fill="#0D0000" transform="translate(906,293)"/>
<path d="M0 0 C0.33 0 0.66 0 1 0 C1 10.23 1 20.46 1 31 C0.67 31 0.34 31 0 31 C0 20.77 0 10.54 0 0 Z " fill="#000000" transform="translate(1018,456)"/>
<path d="M0 0 C7.59 0 15.18 0 23 0 C23 0.33 23 0.66 23 1 C22.02 1.04 22.02 1.04 21.01 1.08 C18.05 1.19 15.09 1.31 12.12 1.44 C11.09 1.48 10.06 1.52 9 1.56 C8.01 1.6 7.02 1.64 6.01 1.68 C5.1 1.72 4.19 1.76 3.25 1.79 C0.97 1.87 0.97 1.87 -1 3 C-0.67 2.01 -0.34 1.02 0 0 Z " fill="#000000" transform="translate(410,293)"/>
<path d="M0 0 C0.33 0 0.66 0 1 0 C1 5.94 1 11.88 1 18 C0.67 18 0.34 18 0 18 C0 12.06 0 6.12 0 0 Z " fill="#000000" transform="translate(1049,758)"/>
<path d="M0 0 C4.95 0 9.9 0 15 0 C15 0.33 15 0.66 15 1 C10.05 1 5.1 1 0 1 C0 0.67 0 0.34 0 0 Z " fill="#000000" transform="translate(197,811)"/>
<path d="M0 0 C0.33 0 0.66 0 1 0 C1 4.95 1 9.9 1 15 C0.67 15 0.34 15 0 15 C0 10.05 0 5.1 0 0 Z " fill="#000000" transform="translate(397,782)"/>
<path d="M0 0 C3.63 0 7.26 0 11 0 C11 0.33 11 0.66 11 1 C7.37 1 3.74 1 0 1 C0 0.67 0 0.34 0 0 Z " fill="#000000" transform="translate(173,817)"/>
<path d="M0 0 C1.98 0 3.96 0 6 0 C6 0.33 6 0.66 6 1 C3.69 1.33 1.38 1.66 -1 2 C-0.67 1.34 -0.34 0.68 0 0 Z " fill="#000000" transform="translate(137,829)"/>
<path d="M0 0 C0.33 0.66 0.66 1.32 1 2 C0.06 4.12 0.06 4.12 -1 6 C-1.04 4.33 -1.04 2.67 -1 1 C-0.67 0.67 -0.34 0.34 0 0 Z " fill="#000000" transform="translate(391,831)"/>
<path d="M0 0 C2.31 0 4.62 0 7 0 C7 0.33 7 0.66 7 1 C4.69 1 2.38 1 0 1 C0 0.67 0 0.34 0 0 Z " fill="#000000" transform="translate(155,823)"/>
<path d="M0 0 C2.31 0 4.62 0 7 0 C7 0.33 7 0.66 7 1 C4.69 1 2.38 1 0 1 C0 0.67 0 0.34 0 0 Z " fill="#000000" transform="translate(898,561)"/>
<path d="M0 0 C1.65 0 3.3 0 5 0 C5 0.33 5 0.66 5 1 C3.35 1 1.7 1 0 1 C0 0.67 0 0.34 0 0 Z " fill="#000000" transform="translate(971,860)"/>
<path d="M0 0 C0.33 0 0.66 0 1 0 C1 1.65 1 3.3 1 5 C0.67 5 0.34 5 0 5 C0 3.35 0 1.7 0 0 Z " fill="#000000" transform="translate(1012,502)"/>
<path d="M0 0 C3 1 3 1 3 1 Z " fill="#000000" transform="translate(350,872)"/>
<path d="" fill="#000000" transform="translate(0,0)"/>
<path d="M0 0 C2 1 2 1 2 1 Z " fill="#000000" transform="translate(958,555)"/>
<path d="" fill="#000000" transform="translate(0,0)"/>
<path d="" fill="#000000" transform="translate(0,0)"/>
<path d="" fill="#000000" transform="translate(0,0)"/>
<path d="" fill="#000000" transform="translate(0,0)"/>
<path d="" fill="#000000" transform="translate(0,0)"/>
<path d="" fill="#000000" transform="translate(0,0)"/>
<path d="" fill="#000000" transform="translate(0,0)"/>
<path d="" fill="#000000" transform="translate(0,0)"/>
<path d="" fill="#000000" transform="translate(0,0)"/>
<path d="" fill="#000000" transform="translate(0,0)"/>
<path d="" fill="#000000" transform="translate(0,0)"/>
<path d="" fill="#000000" transform="translate(0,0)"/>
<path d="" fill="#000000" transform="translate(0,0)"/>
<path d="" fill="#000000" transform="translate(0,0)"/>
<path d="" fill="#000000" transform="translate(0,0)"/>
</svg>
